<svg width="150" height="154" viewBox="0 0 150 154" fill="none" xmlns="http://www.w3.org/2000/svg">
<path d="M0 12C0 5.37259 5.37258 0 12 0H138C144.627 0 150 5.37258 150 12V142C150 148.627 144.627 154 138 154H12C5.37258 154 0 148.627 0 142V12Z" fill="#22314A" fill-opacity="0.7"/>
<path d="M75 35.3074C69.386 35.3074 63.827 36.4126 58.6403 38.5598C53.4536 40.7071 48.7409 43.8544 44.7712 47.8221C36.754 55.8351 32.25 66.703 32.25 78.0352C32.25 96.9208 44.5193 112.944 61.491 118.627C63.6285 118.968 64.3125 117.644 64.3125 116.49V109.269C52.4708 111.833 49.9485 103.544 49.9485 103.544C47.982 98.5872 45.2033 97.2627 45.2033 97.2627C41.313 94.6135 45.5025 94.699 45.5025 94.699C49.7775 94.9981 52.0433 99.1 52.0433 99.1C55.7625 105.595 62.0468 103.672 64.4835 102.646C64.8683 99.8691 65.9798 97.989 67.1768 96.9208C57.6863 95.8526 47.7255 92.1781 47.7255 75.8988C47.7255 71.156 49.35 67.3532 52.1288 64.3195C51.7013 63.2513 50.205 58.8077 52.5562 53.0394C52.5562 53.0394 56.1473 51.8858 64.3125 57.3976C67.6898 56.4576 71.3662 55.9876 75 55.9876C78.6338 55.9876 82.3102 56.4576 85.6875 57.3976C93.8528 51.8858 97.4437 53.0394 97.4437 53.0394C99.795 58.8077 98.2988 63.2513 97.8713 64.3195C100.65 67.3532 102.274 71.156 102.274 75.8988C102.274 92.2208 92.271 95.8099 82.7378 96.8781C84.2768 98.2027 85.6875 100.809 85.6875 104.783V116.49C85.6875 117.644 86.3715 119.011 88.5518 118.627C105.523 112.901 117.75 96.9208 117.75 78.0352C117.75 72.4241 116.644 66.8679 114.496 61.6839C112.347 56.5 109.199 51.7897 105.229 47.8221C101.259 43.8544 96.5464 40.7071 91.3597 38.5598C86.173 36.4126 80.614 35.3074 75 35.3074Z" fill="black"/>
</svg>
