<svg width="115" height="93" viewBox="0 0 115 93" fill="none" xmlns="http://www.w3.org/2000/svg">
<path d="M23.8859 0.5C17.3241 0.5 12.4685 6.26771 12.6859 12.5226C12.8948 18.5317 12.6235 26.3151 10.6725 32.662C8.71574 39.0275 5.4059 43.0597 0 43.5776V49.4224C5.4059 49.9403 8.71574 53.9725 10.6725 60.3384C12.6235 66.6854 12.8948 74.4678 12.6859 80.4774C12.4685 86.7314 17.3241 92.5 23.8868 92.5H91.1227C97.6849 92.5 102.539 86.7323 102.322 80.4774C102.113 74.4683 102.384 66.6854 104.335 60.3384C106.293 53.973 109.594 49.9399 115 49.4224V43.5776C109.594 43.0597 106.293 39.0275 104.336 32.662C102.384 26.316 102.113 18.5321 102.322 12.5226C102.539 6.26861 97.6849 0.5 91.1227 0.5H23.885H23.8859ZM77.9664 57.1318C77.9664 65.7448 71.5695 70.968 60.9536 70.968H42.8815C42.3647 70.9679 41.869 70.7616 41.5036 70.3945C41.1381 70.0274 40.9328 69.5296 40.9328 69.0105V23.9895C40.9328 23.7324 40.9831 23.4778 41.0811 23.2403C41.179 23.0027 41.3225 22.7869 41.5036 22.6051C41.6846 22.4232 41.8994 22.279 42.136 22.1806C42.3725 22.0822 42.626 22.0316 42.882 22.0316H60.8503C69.7021 22.0316 75.5114 26.8474 75.5114 34.2405C75.5114 39.4299 71.6032 44.0756 66.6245 44.889V45.1601C73.4028 45.9068 77.9664 50.6206 77.9664 57.1318ZM58.9824 28.2369H48.6787V42.8535H57.3576C64.0662 42.8535 67.766 40.1404 67.766 35.2908C67.766 30.7465 64.5842 28.2369 58.9824 28.2369ZM48.6787 48.6532V64.7609H59.362C66.3465 64.7609 70.0471 61.9463 70.0471 56.6563C70.0471 51.3654 66.2436 48.6523 58.9128 48.6523H48.6787V48.6532Z" fill="#7E13F8"/>
</svg>
