<svg width="114" height="103" viewBox="0 0 114 103" fill="none" xmlns="http://www.w3.org/2000/svg">
<path d="M104.01 91.7049C100.99 95.3028 98.3121 91.3052 94.7225 92.4473C88.455 92.4473 95.2353 89.5919 95.0643 86.7364C91.7597 84.1665 87.9991 90.2201 85.834 91.8762C80.5787 90.9668 75.4645 89.3733 70.621 87.1362C64.9799 84.4959 59.9382 80.7253 55.8069 76.057C51.1842 71.4394 47.5576 65.9189 45.1521 59.838C42.0769 49.1801 40.4666 38.1516 40.366 27.0574C40.7648 19.6332 48.5707 27.8569 51.7615 25.1728C50.5649 21.3465 44.4114 20.1472 40.9927 18.5481C37.688 18.5481 36.4915 15.4071 33.0159 15.1787C33.0159 11.0097 26.5774 13.2941 24.1274 10.3815C26.5205 4.21376 16.3215 10.3815 17.1192 5.18461C20.4239 -1.66848 6.97719 -0.526299 12.561 5.52727C17.9738 8.61116 7.26208 10.8384 10.3958 12.8943C10.6608 13.4103 10.7883 13.9861 10.7661 14.566C10.7438 15.1459 10.5725 15.7102 10.2688 16.2042C9.96499 16.6982 9.53909 17.1053 9.03229 17.3858C8.52549 17.6664 7.95498 17.8111 7.37603 17.8057C3.1597 18.2055 3.55854 24.0306 7.7179 20.9467C12.3331 19.519 8.51558 21.5749 6.29346 21.9747C5.12081 22.1534 4.00813 22.6118 3.04903 23.3113C2.08992 24.0108 1.31244 24.9309 0.781986 25.9943C0.251531 27.0577 -0.0163856 28.2331 0.000775402 29.4219C0.0179364 30.6106 0.319673 31.7779 0.880601 32.8254C3.10649 39.2356 5.00816 45.7544 6.57835 52.3567C10.0953 62.3652 15.2987 71.695 21.9623 79.9404C25.4662 84.3483 29.6156 88.1992 34.2694 91.3623C38.5425 94.3125 43.2017 96.6571 48.1149 98.3296C56.8732 100.915 65.9367 102.317 75.0652 102.499C80.6026 102.529 86.1318 102.071 91.5887 101.128C96.5458 101.642 100.078 97.4158 104.466 99.6431C107.201 97.2445 111.075 98.3296 113.753 96.5592C115.576 89.5919 106.802 95.0172 104.01 91.7049ZM94.0957 87.4788C92.8422 87.4788 94.3806 85.5371 94.0957 87.4788V87.4788ZM50.6219 24.6588C50.0521 24.6588 50.1661 23.9735 49.7103 23.8022C45.1521 21.6891 51.9324 22.4887 50.6219 24.8873V24.6588ZM89.1387 89.7061C87.1445 89.2492 90.7341 88.2784 89.1387 89.7061V89.7061ZM73.128 90.3343C71.8175 90.3343 74.1536 89.5348 73.128 90.3343V90.3343ZM62.4163 83.5954C61.6755 83.5954 62.4163 82.853 62.4163 83.5954V83.5954ZM61.1628 82.6246C59.1116 82.6246 60.65 81.3111 61.1628 82.6246V82.6246ZM58.7697 80.5686C56.8894 81.0255 58.7697 78.6269 58.7697 80.5686V80.5686ZM24.5832 13.9794C21.5634 12.3804 25.21 15.864 22.646 15.8069C21.2785 15.8069 18.7145 12.8372 19.5692 11.3524C21.2785 12.2661 24.2983 12.5517 24.8111 14.2078L24.5832 13.9794ZM19.3413 9.35358H18.7145C18.5436 7.81163 23.6716 9.01092 19.5692 9.58201L19.3413 9.35358ZM13.5296 4.84196C11.1365 3.75688 13.5296 -0.469191 16.0366 1.52963C18.9425 5.69859 10.6237 1.07275 13.5296 4.84196ZM16.3215 8.78249C14.7831 9.41069 17.2331 7.58319 16.3215 8.78249V8.78249ZM19.0564 14.0365C22.4751 16.6635 17.1192 14.0365 14.954 15.6927C11.4784 16.0353 18.7145 13.751 19.0564 14.0365ZM20.025 17.4631C22.0192 17.4631 30.7368 13.5225 27.8309 17.0633C30.5089 20.2043 28.4007 19.1763 26.6344 17.0633C28.2298 18.1484 26.9763 22.7742 24.5262 19.6332C22.0762 16.4922 21.6774 18.6053 23.5576 20.8325C21.7344 17.1204 16.4924 18.7195 12.6749 19.9759C10.2249 19.7474 19.1134 17.8628 20.025 17.4631ZM9.08535 25.7439C8.17372 28.0283 10.4528 28.7707 12.618 29.1704C16.1506 28.1996 10.2819 27.5714 12.9598 26.6576C14.4412 26.6576 8.28767 25.1728 13.4156 24.4875C18.5436 23.8022 23.3867 21.5178 28.5716 20.4327C32.9652 19.4645 37.4697 19.0994 41.9613 19.3477C43.6707 21.3465 40.6509 24.7159 37.5741 25.0586C33.8769 26.2505 30.0517 26.9981 26.1786 27.2858C21.6204 26.7147 18.3727 30.7695 13.7005 31.2835C14.954 28.9991 12.6749 30.4839 10.3389 30.3697C11.5354 35.0527 1.96317 29.1704 7.60394 28.0283C3.38761 26.5434 3.33063 30.9979 3.78645 33.7392C0.0829165 28.5422 4.18529 26.3721 9.08535 25.7439ZM19.7971 31.9117C18.5436 31.6261 20.7657 30.7695 19.7971 31.9117V31.9117ZM15.6947 36.9373C15.6947 36.9373 13.7575 36.4804 14.5552 35.9664C20.2529 36.7088 9.42722 34.0818 15.2959 34.71C19.0564 34.5958 17.8029 36.7659 15.6947 36.9373ZM17.575 37.9081C16.8913 38.5934 17.575 36.5375 17.575 37.9081V37.9081ZM13.5296 37.9081C11.0226 37.3941 14.7261 36.6517 13.5296 37.9081V37.9081ZM13.1877 46.0747C12.618 45.6179 12.7889 46.6458 13.1877 46.0747V46.0747ZM11.4784 45.1039C8.34465 44.0188 11.4784 43.9046 11.4784 45.1039V45.1039ZM10.7947 52.4138C9.31326 51.8999 9.37024 49.5584 8.68651 48.302C6.52137 42.4198 11.0226 50.5864 10.5668 52.4138H10.7947ZM12.1052 43.9046C8.17372 43.4477 11.8203 41.1062 12.1052 43.9046V43.9046ZM12.1052 41.9629H11.5924C7.26208 39.9641 14.1563 40.992 11.4784 41.9629H12.1052ZM11.4784 37.4513C8.00278 35.6809 14.7831 35.3953 11.4784 37.4513V37.4513ZM12.6749 38.9361C10.7377 39.2787 12.9598 37.1086 12.6749 38.9361V38.9361ZM5.26787 39.3359C4.58414 39.7927 5.26787 38.0223 5.26787 39.3359V39.3359ZM5.78066 38.5363C4.86902 38.5363 5.78066 36.9944 5.78066 38.5363V38.5363ZM6.23648 32.8254C3.95738 32.2543 8.11674 31.3977 6.23648 32.8254V32.8254ZM7.7179 44.2472C5.21089 43.6761 7.03417 40.5351 7.7179 44.2472V44.2472ZM9.42722 51.3859C11.8203 54.2984 10.9086 55.8975 13.3587 59.4383C10.1679 57.4394 9.54117 52.5852 7.66092 49.4442C5.32484 44.3044 8.9714 49.3871 9.42722 51.3859ZM32.731 87.8215C30.7938 87.4217 29.4833 85.3658 28.1158 84.0523C24.2263 81.1988 21.1437 77.3809 19.1704 72.9731C15.8901 68.7748 13.0991 64.2145 10.8517 59.3812C8.51558 54.1271 12.2761 59.7809 12.8459 61.7797C14.0424 65.6632 17.8599 67.8904 18.2017 70.4603C22.4181 72.8589 20.2529 76.8565 23.8995 77.9416C25.4379 77.1421 25.6088 82.7388 28.9705 81.5966C27.0902 82.4532 29.7112 83.4812 30.6798 85.0803C32.674 84.7947 37.3462 89.7632 32.731 88.0499V87.8215ZM15.011 51.3859C13.2447 50.9861 16.8913 50.7577 15.011 51.3859V51.3859ZM16.1506 54.07C13.0168 53.2705 19.1134 52.9278 16.1506 54.07V54.07ZM24.0704 56.7541C26.3495 55.7833 24.9821 61.2086 27.2042 61.894C31.5345 67.6049 24.1844 61.894 21.5064 61.4942C21.8483 61.4942 19.3413 60.8089 20.4239 60.5804C19.6262 59.7238 17.8599 56.8112 21.9053 58.753C25.3239 60.1236 25.6088 59.0956 24.0704 56.5257V56.7541ZM31.5345 66.8053C31.5345 67.662 27.4321 67.5478 31.1926 69.2039C29.0275 69.2039 28.3437 69.2039 31.1926 70.9172C29.9391 71.8881 33.6426 72.6876 32.3891 74.1724C36.1497 77.1421 31.7054 74.9148 30.11 73.7155C28.5147 72.5163 25.267 71.7167 25.8367 70.8601C30.4519 73.2587 27.0333 70.8601 24.9821 69.1468C28.6856 70.0606 22.0762 66.4056 25.5518 67.3764C26.6344 67.662 24.0135 65.2063 27.4321 66.9767C24.3553 64.007 30.11 66.2914 31.5345 66.5769V66.8053ZM34.2694 65.8345C30.7938 65.035 34.2694 63.8928 34.2694 65.8345V65.8345ZM33.3008 77.2563C29.8252 75.7715 35.5229 77.2563 33.3008 77.2563V77.2563ZM30.7368 76.2855C26.6914 74.9719 33.6996 76.2855 30.7368 76.2855V76.2855ZM30.224 76.9137C28.9705 76.9137 30.224 75.9428 30.224 76.9137V76.9137ZM24.0704 68.0617C19.9681 66.3485 22.9309 66.1771 24.0704 68.0617V68.0617ZM20.9936 66.0629C17.689 64.1783 20.5378 64.1783 20.9936 66.0629V66.0629ZM20.9936 69.775C17.7459 67.2622 20.5948 68.3473 20.9936 69.775V69.775ZM20.139 62.1224C18.1448 62.1224 20.8797 60.9802 20.139 62.1224V62.1224ZM34.2694 82.1106C31.3635 81.2539 34.2694 81.311 34.2694 82.1106V82.1106ZM32.1612 79.9404H31.2496C27.3751 76.8565 33.0159 77.7703 35.5229 79.1409C41.0497 79.9404 34.2694 81.3682 32.1612 79.9404ZM47.5451 89.3634C43.6707 88.4497 48.4568 87.8215 47.5451 89.3634V89.3634ZM46.5765 86.3938C46.0067 85.7656 46.2916 86.3938 46.5765 86.3938V86.3938ZM41.6765 78.7411C38.3148 77.9416 42.873 77.6561 43.7276 78.7411C49.5394 79.9404 43.3858 80.226 41.6765 78.7411ZM42.873 85.6513H42.2462L41.5055 85.3087C38.3148 81.9393 48.2859 86.9077 42.873 85.6513ZM41.2776 89.5919C40.423 89.9345 41.2776 88.7924 41.2776 89.5919V89.5919ZM42.93 82.7959L42.0183 82.5103C38.2578 79.9404 46.8044 83.0243 42.93 82.5103V82.7959ZM43.8416 92.6187C41.5625 91.7049 45.323 91.1909 43.8416 92.6187V92.6187ZM44.4114 88.3926C41.1067 87.593 46.4626 87.6502 44.4114 88.3926V88.3926ZM45.1521 84.9089C42.6451 84.5663 45.437 83.7096 45.1521 84.9089V84.9089ZM41.0497 79.8833C43.6707 80.226 43.7276 81.4253 41.0497 80.6828C40.5369 80.6828 39.6823 80.6828 39.4543 79.712C35.1241 76.8565 39.6253 78.2843 41.0497 79.5978V79.8833ZM40.7078 91.3051C39.5683 91.9905 40.7078 90.0487 40.7078 91.3051V91.3051ZM38.9415 88.3926C35.9217 88.3926 41.2206 86.9077 38.9415 88.3926V88.3926ZM38.2578 90.3914C36.7764 89.8203 39.2264 89.9345 38.2578 90.3914V90.3914ZM39.9671 85.3087C37.0043 84.5092 41.3916 84.2807 39.9671 85.3087V85.3087ZM39.0555 82.0535C37.4601 82.0535 38.7136 81.1397 39.0555 82.0535V82.0535ZM35.9787 76.6281C32.731 74.0011 42.7021 78.7982 35.9787 76.6281V76.6281ZM35.6368 77.7132C35.0101 77.1992 35.6368 78.0558 35.6368 77.7132V77.7132ZM56.4336 99.3004C51.364 98.3936 46.4514 96.7587 41.8474 94.4462L39.9671 93.304C36.7194 91.5336 37.1183 91.1338 40.309 92.9042C41.3916 93.8179 49.3684 97.0732 45.6079 94.903C43.9556 94.5033 34.7822 89.4777 40.8218 91.6478C45.8543 94.3221 51.0716 96.6314 56.4336 98.558C60.9658 99.6359 65.6491 99.9257 70.2791 99.4146C73.9827 101.299 77.8571 98.9578 81.6746 100.614C73.2104 101.636 64.6337 101.192 56.3197 99.3004H56.4336ZM49.3114 95.3028C46.4056 94.7888 50.2231 93.9893 49.3114 95.3028V95.3028ZM53.4708 89.5919C50.1661 88.9637 56.8894 88.2784 53.4708 89.5919V89.5919ZM58.2569 97.0732C63.9546 99.1862 54.8383 97.7585 52.958 96.5592C47.7161 94.389 57.0604 97.0732 58.2569 97.0732ZM52.2173 90.7912C47.6021 90.1059 57.3453 90.7912 52.2173 90.7912V90.7912ZM60.8779 95.6454C59.2255 96.9589 60.8779 93.9322 60.8779 95.6454V95.6454ZM62.5302 95.931C61.6755 96.2736 62.5302 94.9601 62.5302 95.931V95.931ZM64.0686 93.7608C63.157 94.903 64.0686 92.4473 64.0686 93.7608V93.7608ZM65.8349 93.7608C63.2709 94.7317 68.5128 91.5336 65.8349 93.7608V93.7608ZM66.6326 93.7608C69.4245 91.3623 69.5384 92.5044 69.4815 94.5033C67.0314 97.2445 68.5128 93.3611 66.9744 94.8459C65.4361 96.3308 65.8919 94.2748 66.6326 93.8751V93.7608ZM71.3617 96.3308C68.5128 96.3308 74.2676 93.2469 71.3617 96.3308V96.3308ZM71.3617 97.3587C70.2222 97.6443 71.3617 96.6163 71.3617 97.3587V97.3587ZM70.4501 95.3599C68.228 93.8751 75.806 91.8762 70.4501 95.3599V95.3599ZM73.6978 95.8739H73.242C73.071 94.5604 76.3188 94.3319 73.6978 95.9881V95.8739ZM74.5525 96.9589C72.8431 96.5021 77.2304 94.6746 74.5525 96.9589V96.9589ZM76.6036 96.3879C73.6978 97.4158 79.3386 94.1035 76.6036 96.3879V96.3879ZM77.8571 97.0161L77.1734 97.4729C75.8629 96.6734 81.2188 94.7317 77.8571 97.0732V97.0161ZM75.4071 93.9893C72.3303 92.9613 67.4303 89.649 64.0116 91.8762C59.4534 94.7888 66.3477 88.6781 62.6442 91.4194C58.8836 95.931 60.0802 88.5639 56.4336 90.7912C56.4336 90.1059 53.1859 89.8774 55.465 88.6781C53.4138 88.6781 54.7243 88.3926 55.465 86.7364C54.5534 86.7364 49.7673 86.7364 47.7161 85.0803C45.437 82.1106 48.1149 83.367 50.451 83.7667C46.6335 84.4521 51.8185 86.6222 54.3255 85.4229C53.1859 84.9089 51.8754 82.4532 48.6277 80.2831C44.7051 78.1277 40.6517 76.2204 36.4915 74.5722C31.7054 71.7167 37.5171 73.5442 39.1695 75.029C43.9556 77.1421 42.0753 72.1165 39.1695 70.803C36.0927 70.803 35.352 67.4335 32.9019 67.6049C36.7194 68.2331 39.3974 66.634 35.1241 62.7506C30.8507 58.8672 36.8334 66.3485 34.4973 65.2634C33.4147 63.8357 34.2124 61.8368 30.7938 61.0944C30.7938 62.4079 30.3379 64.4068 29.5972 61.6655C28.6286 61.6655 27.5461 62.8648 26.7484 60.0665C27.4891 56.8112 23.5576 56.0688 22.9309 54.0129C26.3495 56.183 27.8879 54.4698 25.4949 52.1283C23.1018 49.7868 23.6146 51.5001 22.703 52.1283C19.3413 55.5548 22.3611 46.4174 20.8797 48.9302C19.3983 48.9302 20.2529 50.5864 20.3099 52.6423C15.4099 51.443 21.4495 55.2122 22.8739 57.2681C20.6518 54.9838 21.0506 59.0385 19.1704 57.2681C18.5436 55.5548 18.4866 52.8707 15.3529 52.4138C18.8855 51.1574 13.3017 48.7018 13.7575 48.5875C15.7517 46.76 16.0366 44.2472 18.4297 48.1878C15.4099 48.1878 18.4297 53.2134 19.1134 51.6143C19.1134 48.9302 20.3669 45.9034 15.7517 44.8183C14.3843 46.6458 12.0482 41.2205 14.7261 42.3626C14.3843 38.7648 18.9425 40.8778 18.6576 39.3359C21.0506 38.3079 15.8087 34.9385 18.6576 33.6249C20.8227 34.9956 26.4065 31.569 22.646 31.1121C25.039 31.1121 26.9193 32.1401 27.1472 29.7415C29.0275 30.1413 34.2124 31.7975 29.5403 29.2275C31.5909 28.3917 33.7677 27.909 35.9787 27.7998C40.4799 24.3162 39.5683 33.5107 38.5427 36.0806C40.252 34.8813 39.9102 41.4489 39.3404 43.9046C40.252 42.6482 40.6509 45.9605 39.3404 48.302C39.3404 47.9022 41.6195 47.5596 40.0241 50.3008C38.7706 47.6167 38.2578 56.0117 39.0555 52.1283C41.1637 48.6446 40.6509 52.1283 41.2776 53.4989C41.7334 56.6399 43.1009 59.5525 43.5567 62.4079C45.5509 64.4068 42.7021 63.0361 42.7021 65.7774C43.3288 64.9779 46.0067 66.8624 45.9498 69.6608C45.9498 65.2063 46.4626 68.6328 48.6277 69.6608C50.0848 72.6504 52.0082 75.3879 54.3255 77.7703C56.4336 80.226 54.3255 78.5127 55.1231 79.9975C56.5292 81.9427 58.3052 83.59 60.3489 84.8445C62.3927 86.0991 64.6637 86.9361 67.0314 87.3075C67.9089 88.8366 69.2476 90.0474 70.855 90.7657C72.4624 91.4841 74.2556 91.6729 75.9769 91.3051C72.5582 93.4182 85.5491 93.9893 81.1618 95.1315C79.8514 96.0452 77.6292 93.9893 75.4071 94.1035V93.9893ZM38.2578 73.6013C36.8904 73.6013 38.2578 72.4591 38.2578 73.6013V73.6013ZM40.423 74.8577C39.3974 74.8577 39.7392 73.4871 40.423 74.8577V74.8577ZM25.5518 54.0129C24.1844 53.6131 26.1216 53.4989 25.5518 54.0129V54.0129ZM22.1902 54.0129C20.7088 54.0129 22.1902 52.0712 22.1902 54.0129V54.0129ZM20.4808 53.556C19.9111 53.8416 20.4808 52.9278 20.4808 53.556V53.556ZM83.1561 100.671C80.9339 100.271 84.9793 99.4146 83.1561 100.671V100.671ZM87.3154 94.6746H85.6061C85.9479 92.1047 93.1841 94.1035 96.1469 94.1606C95.2353 96.1023 89.7085 94.389 87.3154 94.903V94.6746ZM98.7109 94.6746C97.1725 94.6746 99.3946 92.8471 98.7109 94.6746V94.6746ZM104.409 94.1606C102.984 94.903 104.409 92.4473 104.409 94.1606V94.1606ZM107.144 94.7888C104.181 94.1035 108.511 94.1035 109.423 93.9893C114.779 94.1035 109.423 94.903 106.745 94.903L107.144 94.7888Z" fill="black"/>
</svg>
