<svg width="113" height="113" viewBox="0 0 113 113" fill="none" xmlns="http://www.w3.org/2000/svg">
<g clip-path="url(#clip0_0_281)">
<path d="M56.5671 0.000519446C65.7382 0.000519446 74.3734 2.14311 82.4741 6.29365L83.545 6.82952L82.6079 7.56578C80.332 9.37334 78.5244 11.7163 77.386 14.3939L77.0514 15.1302L76.3823 14.7956C70.1562 11.8501 63.5289 10.3104 56.6337 10.3104C31.1284 10.3104 10.4432 31.0627 10.4432 56.501C10.4432 81.9392 31.0613 102.692 56.5671 102.692C82.0724 102.692 102.758 81.9396 102.758 56.501C102.758 50.4096 101.62 44.4515 99.2096 38.8279L98.875 38.0917L99.6113 37.7571C102.356 36.7529 104.766 35.0795 106.707 32.9369L107.444 31.9998L107.912 33.0711C111.327 40.5017 113 48.4012 113 56.3672C113 87.4956 87.6284 112.867 56.5 112.867C25.3716 112.867 0 87.4956 0 56.3677C0 25.2397 25.3716 -0.132344 56.5671 0.000519446ZM56.5671 30.7948C70.6921 30.7948 82.2733 42.3093 82.3399 56.5681C82.3399 70.8268 70.8258 82.3413 56.5671 82.3413C42.3079 82.3413 30.7938 70.8268 30.7938 56.5681C30.7938 42.3093 42.375 30.7948 56.5671 30.7948ZM93.4528 9.50709C99.9595 9.50709 105.235 14.7819 105.235 21.2891C105.235 27.7959 99.96 33.0711 93.4528 33.0711C86.9456 33.0711 81.6708 27.7963 81.6708 21.2891C81.6708 14.7819 86.9456 9.50709 93.4528 9.50709Z" fill="#3880FF"/>
</g>
<defs>
<clipPath id="clip0_0_281">
<rect width="113" height="113" fill="white"/>
</clipPath>
</defs>
</svg>
