<svg width="116" height="115" viewBox="0 0 116 115" fill="none" xmlns="http://www.w3.org/2000/svg">
<path d="M88.7949 0H27.7011C12.8153 0 0.747986 12.0673 0.747986 26.9531V88.0469C0.747986 102.933 12.8153 115 27.7011 115H88.7949C103.681 115 115.748 102.933 115.748 88.0469V26.9531C115.748 12.0673 103.681 0 88.7949 0Z" fill="#677EEB"/>
<path fill-rule="evenodd" clip-rule="evenodd" d="M24.4029 74.2033C23.9808 73.5374 23.7539 72.7664 23.7479 71.978C23.742 71.1896 23.9572 70.4152 24.3693 69.743L56.0217 18.1125C57.7821 15.2407 62.0331 15.4918 63.4432 18.5505L92.359 81.2754C93.4317 83.6028 92.1968 86.3412 89.7418 87.0779L44.7615 100.572C43.8808 100.836 42.9379 100.805 42.0764 100.484C41.215 100.162 40.4822 99.5679 39.9899 98.7913L24.4029 74.2033ZM59.6734 33.209C59.9784 31.6897 62.0596 31.4705 62.6741 32.8932L82.6199 79.0459C82.7085 79.2508 82.7528 79.4723 82.7496 79.6955C82.7465 79.9188 82.696 80.1389 82.6016 80.3413C82.5072 80.5437 82.371 80.7237 82.202 80.8697C82.0329 81.0155 81.8348 81.124 81.6208 81.1878L50.543 90.465C49.4006 90.806 48.3063 89.8078 48.5413 88.6389L59.6734 33.209Z" fill="#F7FAFC"/>
</svg>
