<svg width="114" height="113" viewBox="0 0 114 113" fill="none" xmlns="http://www.w3.org/2000/svg">
<path d="M87.2636 0H27.2324C12.6054 0 0.747986 11.8575 0.747986 26.4844V86.5156C0.747986 101.143 12.6054 113 27.2324 113H87.2636C101.891 113 113.748 101.143 113.748 86.5156V26.4844C113.748 11.8575 101.891 0 87.2636 0Z" fill="#242938"/>
<path fill-rule="evenodd" clip-rule="evenodd" d="M37.3847 48.5547C40.0331 37.9609 46.6547 32.6641 57.248 32.6641C73.1386 32.6641 75.1249 44.582 83.0703 46.5684C88.3676 47.893 93.0019 45.9067 96.9745 40.6094C94.3266 51.2027 87.7046 56.5 77.1113 56.5C61.2206 56.5 59.2343 44.582 51.289 42.5957C45.9917 41.2715 41.3574 43.2578 37.3847 48.5547ZM17.5214 72.3906C20.1699 61.7973 26.791 56.5 37.3847 56.5C53.2753 56.5 55.2617 68.418 63.207 70.4043C68.5043 71.729 73.1386 69.7426 77.1113 64.4453C74.4633 75.0386 67.8413 80.3359 57.248 80.3359C41.3574 80.3359 39.371 68.418 31.4257 66.4316C26.1288 65.107 21.4941 67.0933 17.5214 72.3906Z" fill="url(#paint0_linear_0_212)"/>
<defs>
<linearGradient id="paint0_linear_0_212" x1="38.9296" y1="32.6641" x2="72.9179" y2="81.8809" gradientUnits="userSpaceOnUse">
<stop stop-color="#32B1C1"/>
<stop offset="1" stop-color="#14C6B7"/>
</linearGradient>
</defs>
</svg>
